<?xml version="1.0" encoding="UTF-8" standalone="no"?>
<!-- Created with Inkscape (http://www.inkscape.org/) -->

<svg
   xmlns:dc="http://purl.org/dc/elements/1.1/"
   xmlns:cc="http://creativecommons.org/ns#"
   xmlns:rdf="http://www.w3.org/1999/02/22-rdf-syntax-ns#"
   xmlns:svg="http://www.w3.org/2000/svg"
   xmlns="http://www.w3.org/2000/svg"
   xmlns:sodipodi="http://sodipodi.sourceforge.net/DTD/sodipodi-0.dtd"
   xmlns:inkscape="http://www.inkscape.org/namespaces/inkscape"
   width="27.89946mm"
   height="13.285458mm"
   viewBox="0 0 98.856354 47.074455"
   id="svg7415"
   version="1.1"
   inkscape:version="0.92.3 (2405546, 2018-03-11)"
   sodipodi:docname="logo-adota-brasil.svg"
   inkscape:export-filename="/var/www/adotabrasil/images/logo.png"
   inkscape:export-xdpi="89"
   inkscape:export-ydpi="89">
  <defs
     id="defs7417" />
  <sodipodi:namedview
     id="base"
     pagecolor="#ffffff"
     bordercolor="#666666"
     borderopacity="1.0"
     inkscape:pageopacity="0.0"
     inkscape:pageshadow="2"
     inkscape:zoom="3.3855941"
     inkscape:cx="25.195502"
     inkscape:cy="21.976872"
     inkscape:document-units="px"
     inkscape:current-layer="layer1"
     showgrid="false"
     inkscape:window-width="1299"
     inkscape:window-height="713"
     inkscape:window-x="67"
     inkscape:window-y="27"
     inkscape:window-maximized="1"
     fit-margin-top="0"
     fit-margin-left="0"
     fit-margin-right="0"
     fit-margin-bottom="0" />
  <metadata
     id="metadata7420">
    <rdf:RDF>
      <cc:Work
         rdf:about="">
        <dc:format>image/svg+xml</dc:format>
        <dc:type
           rdf:resource="http://purl.org/dc/dcmitype/StillImage" />
        <dc:title></dc:title>
      </cc:Work>
    </rdf:RDF>
  </metadata>
  <g
     inkscape:label="Camada 1"
     inkscape:groupmode="layer"
     id="layer1"
     transform="translate(-2.2125668,2.5503278)">
    <g
       transform="matrix(0.8618112,0.46260071,-0.45636657,0.85019718,61.406528,-9.1738367)"
       id="layer1-8"
       inkscape:label="Camada 1"
       inkscape:export-filename="/var/www/osviralatas/logo.png"
       inkscape:export-xdpi="89"
       inkscape:export-ydpi="89"
       style="fill:#008000">
      <path
         inkscape:export-ydpi="89"
         inkscape:export-xdpi="89"
         inkscape:connector-curvature="0"
         id="path8028"
         d="m 14.25259,-2.4344434 c -0.01415,0.003 -0.02399,0.042 -0.02692,0.117665 -0.0014,0.03537 5.1e-4,0.06394 0.004,0.08854 0.01873,0.0041 0.03761,0.008 0.05609,0.01232 -0.01059,-0.07275 -0.02131,-0.145533 -0.03314,-0.218521 z m -9.7546814,0.05707 c -0.0187,0.0025 -0.03007,0.0028 -0.05177,0.0061 -0.0024,3.58e-4 -0.0067,0.0021 -0.0095,0.0027 -0.0033,0.0041 -0.0061,0.0085 -0.0079,0.0129 0.02309,-0.0071 0.0462,-0.01416 0.06921,-0.0217 z m -0.0718,0.04965 c 0.0011,0.0067 0.0024,0.01383 0.0057,0.02169 0.01326,-4.47e-4 0.02688,-0.0011 0.04021,-0.0016 0.0011,-0.0026 0.0021,-0.0052 0.0033,-0.0078 -0.01648,-0.0044 -0.0329,-0.0087 -0.04919,-0.01232 z m 32.6189264,2.13928403 c -1.95738,0.0014 -2.847882,0.150663 -4.440096,0.743912 -2.885806,1.07523597 -4.690061,2.97725697 -6.633998,6.99347697 -0.380482,0.786083 -0.76445,1.4589898 -0.853089,1.4952508 -0.230376,0.09424 -0.551031,-0.202967 -1.298357,-1.2030418 -1.450013,-1.940404 -3.636628,-3.488103 -5.945385,-4.208204 -1.718979,-0.536145 -3.540751,-0.65569 -5.465943,-0.358469 -2.6937609,0.415879 -4.8267714,1.542148 -6.5559874,3.461557 -1.030158,1.143462 -1.509933,1.883666 -2.140055,3.3016704 -0.600961,1.352386 -0.878943,2.594578 -0.954913,4.267036 -0.07801,1.717302 0.127612,2.957936 0.772318,4.659712 1.809355,4.775985 4.858161,8.718422 10.9337814,14.139021 3.461436,3.088253 7.782399,6.376491 14.380651,10.943486 0.718263,0.497143 1.352906,0.904363 1.410367,0.904967 0.15253,0.0014 1.487616,-1.644732 3.192135,-3.935935 0.820247,-1.102567 1.722247,-2.291439 2.004403,-2.642 0.282155,-0.350564 0.485795,-0.684369 0.452517,-0.741763 -0.03328,-0.05739 -0.465251,-0.39148 -0.959918,-0.742348 l -0.89934,-0.637973 -0.589033,0.702866 c -0.323954,0.386499 -0.965003,1.191937 -1.42469,1.790002 -1.500434,1.952095 -2.263289,2.883784 -2.361137,2.883784 -0.05286,0 -0.436532,-0.267129 -0.85257,-0.593608 C 28.40066,40.708485 26.508905,39.296005 24.612695,37.896107 22.716487,36.49621 20.647959,34.950203 20.015892,34.460544 15.529928,30.985325 12.373119,27.690679 10.29055,24.310426 9.4048841,22.872887 8.3742296,20.718946 8.0728316,19.675539 6.8405146,15.409374 9.6223201,10.293109 13.956256,8.8549984 c 1.785027,-0.5923188 3.714656,-0.6594238 5.44713,-0.1893968 1.128458,0.3061548 2.967883,1.2923242 3.82466,2.0505464 0.387663,0.343072 1.059679,1.09883 1.493379,1.679568 0.433701,0.58074 0.856944,1.056057 0.940588,1.056057 0.301847,0 0.614277,-0.505432 0.928681,-1.502092 0.396727,-1.257649 0.858833,-2.0875242 1.710836,-3.0729856 1.168638,-1.3516918 3.026,-2.4422158 4.946289,-2.9041108 1.247208,-0.299996 3.626083,-0.331124 4.741085,-0.06196 3.00667,0.725817 5.127176,2.416426 6.15818,4.9097014 0.296065,0.715971 0.576949,2.017799 0.576954,2.674643 0,0.27525 0.03549,0.523854 0.07904,0.55256 0.04355,0.0287 0.337484,-0.121631 0.653064,-0.334038 0.315579,-0.212405 1.089773,-0.708797 1.7205,-1.103163 0.659713,-0.41249 1.18083,-0.815 1.226907,-0.947774 0.155354,-0.447689 0.01257,-2.7885666 -0.222463,-3.6474364 -1.018402,-3.721551 -4.21931,-6.797474 -8.210729,-7.89023697 -1.042051,-0.285296 -1.31487,-0.314548 -2.925318,-0.313319 z M 40.268408,10.371555 c -0.893446,0.0055 -1.728958,0.413416 -2.473146,1.211446 -2.568668,2.754514 -2.301832,8.186356 0.474093,9.651116 0.995463,0.525269 2.067317,0.161731 3.223888,-1.09339 1.768914,-1.919649 2.308489,-4.923272 1.381716,-7.691457 -0.510178,-1.523853 -0.757925,-1.776259 -1.979206,-2.016929 -0.211949,-0.04176 -0.421165,-0.06203 -0.627345,-0.06079 z m 8.636675,3.86068 c -0.516875,0.0049 -1.055718,0.07862 -1.415544,0.213439 -1.405276,0.526521 -3.095747,2.165022 -3.772019,3.655841 -0.666093,1.468376 -0.863297,2.736332 -0.608016,3.909741 0.281819,1.295418 0.711301,1.830093 1.712733,2.131858 0.50203,0.151274 1.609714,0.02572 2.333347,-0.26465 1.188018,-0.476686 2.140589,-1.313538 3.210428,-2.820064 0.679955,-0.957486 1.021507,-1.745777 1.212065,-2.79739 0.336238,-1.855555 -0.354364,-3.542527 -1.601415,-3.911697 -0.280814,-0.08313 -0.66957,-0.120906 -1.071579,-0.117078 z m -17.561915,1.403582 c -0.824427,-4.77e-4 -1.359546,0.286311 -2.092248,1.12134 -1.24386,1.417578 -1.695892,3.324395 -1.255556,5.297101 0.438303,1.963587 1.175727,2.986612 2.386161,3.310467 1.078381,0.288526 2.361938,-0.133424 3.1124,-1.023221 1.559942,-1.849566 1.849045,-4.981616 0.655306,-7.098634 -0.624529,-1.107555 -1.495299,-1.606152 -2.806063,-1.607053 z m 19.837276,7.966073 c -0.710617,-0.0089 -1.573195,0.210181 -2.453645,0.649898 -1.532637,0.765431 -2.942518,2.543794 -3.372137,4.253355 -0.07446,0.296306 -0.114582,0.926223 -0.09337,1.466129 0.03297,0.838921 0.07303,1.000953 0.352074,1.424103 0.388845,0.589663 0.835211,0.876575 1.543428,0.992144 2.559615,0.41769 5.447392,-1.830082 6.088627,-4.739459 0.308894,-1.401485 -0.0037,-2.913697 -0.745566,-3.608148 -0.30593,-0.28634 -0.766713,-0.431134 -1.319413,-0.438022 z m -11.705411,0.886988 c -0.115988,0.0031 -0.252098,0.01431 -0.423524,0.03107 -2.325386,0.227393 -3.935115,0.736466 -6.190626,1.957901 -1.853439,1.003702 -2.677103,1.599156 -3.523153,2.54701 -1.458924,1.63447 -1.496553,3.110164 -0.122189,4.7807 0.675113,0.820604 1.175427,1.100133 2.240153,1.251907 1.832685,0.261243 3.429183,0.746119 4.120814,1.251319 0.175671,0.128319 0.648476,0.518717 1.050698,0.867637 1.536199,1.332607 2.870752,2.096112 4.178975,2.390839 1.554458,0.350198 2.447464,0.09556 3.053032,-0.870374 0.1852,-0.295404 0.389784,-0.72135 0.45459,-0.946601 0.0648,-0.22525 0.141336,-1.436918 0.170168,-2.692626 0.04646,-2.02381 0.02687,-2.426845 -0.173278,-3.54834 -0.440865,-2.470324 -1.260418,-4.271413 -2.570998,-5.650486 -0.445249,-0.468522 -1.002872,-0.926139 -1.347543,-1.1059 -0.401712,-0.209514 -0.569155,-0.27342 -0.917119,-0.264063 z"
         style="fill:#008000;fill-opacity:1" />
    </g>
  </g>
  <g
     inkscape:groupmode="layer"
     id="layer2"
     inkscape:label="Camada 2"
     transform="translate(-0.27690238,0.51880356)">
    <rect
       style="opacity:1;fill:none;fill-opacity:1;fill-rule:evenodd;stroke:#ff8f46;stroke-width:0.35433071;stroke-linejoin:round;stroke-miterlimit:4;stroke-dasharray:none;stroke-dashoffset:0;stroke-opacity:1"
       id="rect1876"
       width="98.856354"
       height="47.074455"
       x="0.27690288"
       y="-0.51880306"
       inkscape:export-filename="/var/www/osviralatas/logo.png"
       inkscape:export-xdpi="89"
       inkscape:export-ydpi="89" />
    <text
       xml:space="preserve"
       style="font-style:normal;font-variant:normal;font-weight:normal;font-stretch:normal;font-size:23.39509964px;line-height:125%;font-family:'MADE GoodTime Grotesk';-inkscape-font-specification:'MADE GoodTime Grotesk, Normal';font-variant-ligatures:normal;font-variant-caps:normal;font-variant-numeric:normal;font-feature-settings:normal;text-align:center;letter-spacing:0px;word-spacing:0px;writing-mode:lr-tb;text-anchor:middle;fill:#ff6600;fill-opacity:1;stroke:none;stroke-width:1.34971762px;stroke-linecap:butt;stroke-linejoin:miter;stroke-opacity:1;"
       x="36.496998"
       y="16.406414"
       id="text1812-0"
       transform="matrix(0.99387915,-2.0409509e-4,5.904804e-4,1.0061584,0,0)"
       inkscape:export-filename="/var/www/osviralatas/logo.png"
       inkscape:export-xdpi="89"
       inkscape:export-ydpi="89"><tspan
         sodipodi:role="line"
         id="tspan1810-9"
         x="36.496998"
         y="16.406414"
         style="fill:#ff6600;stroke-width:1.34971762px;">vira</tspan></text>
    <text
       xml:space="preserve"
       style="font-style:italic;font-variant:normal;font-weight:normal;font-stretch:normal;font-size:22.57645226px;line-height:125%;font-family:'Century Schoolbook L';-inkscape-font-specification:'Century Schoolbook L, Italic';font-variant-ligatures:normal;font-variant-caps:normal;font-variant-numeric:normal;font-feature-settings:normal;text-align:center;letter-spacing:0px;word-spacing:0px;writing-mode:lr-tb;text-anchor:middle;fill:#ff7f2a;fill-opacity:1;stroke:none;stroke-width:1.30246925px;stroke-linecap:butt;stroke-linejoin:miter;stroke-opacity:1;"
       x="40.685432"
       y="21.698652"
       id="text1812-0-6"
       transform="matrix(0.81174152,0.50579117,-0.40976798,0.97659532,0,0)"
       inkscape:export-xdpi="89"
       inkscape:export-ydpi="89"><tspan
         sodipodi:role="line"
         id="tspan1810-9-7"
         x="40.685432"
         y="21.698652"
         style="font-style:italic;font-variant:normal;font-weight:normal;font-stretch:normal;font-size:22.57645226px;font-family:'Century Schoolbook L';-inkscape-font-specification:'Century Schoolbook L, Italic';font-variant-ligatures:normal;font-variant-caps:normal;font-variant-numeric:normal;font-feature-settings:normal;text-align:center;writing-mode:lr-tb;text-anchor:middle;fill:#ff7f2a;stroke-width:1.30246925px;">A</tspan></text>
    <text
       xml:space="preserve"
       style="font-style:italic;font-variant:normal;font-weight:normal;font-stretch:normal;font-size:22.57645226px;line-height:125%;font-family:'Century Schoolbook L';-inkscape-font-specification:'Century Schoolbook L, Italic';font-variant-ligatures:normal;font-variant-caps:normal;font-variant-numeric:normal;font-feature-settings:normal;text-align:center;letter-spacing:0px;word-spacing:0px;writing-mode:lr-tb;text-anchor:middle;fill:#ff6600;fill-opacity:1;stroke:none;stroke-width:1.30246925px;stroke-linecap:butt;stroke-linejoin:miter;stroke-opacity:1"
       x="13.88633"
       y="36.215626"
       id="text1812-0-6-5"
       transform="matrix(0.89806475,0.12135485,-0.13879264,1.0947505,0,0)"
       inkscape:transform-center-x="25.729239"
       inkscape:transform-center-y="3.9366919"
       inkscape:export-xdpi="89"
       inkscape:export-ydpi="89"><tspan
         sodipodi:role="line"
         id="tspan1810-9-7-2"
         x="13.88633"
         y="36.215626"
         style="font-style:italic;font-variant:normal;font-weight:normal;font-stretch:normal;font-size:22.57645226px;font-family:'Century Schoolbook L';-inkscape-font-specification:'Century Schoolbook L, Italic';font-variant-ligatures:normal;font-variant-caps:normal;font-variant-numeric:normal;font-feature-settings:normal;text-align:center;writing-mode:lr-tb;text-anchor:middle;fill:#ff6600;stroke-width:1.30246925px">L</tspan></text>
    <text
       xml:space="preserve"
       style="font-style:italic;font-variant:normal;font-weight:normal;font-stretch:normal;font-size:22.57645226px;line-height:125%;font-family:'Century Schoolbook L';-inkscape-font-specification:'Century Schoolbook L, Italic';font-variant-ligatures:normal;font-variant-caps:normal;font-variant-numeric:normal;font-feature-settings:normal;text-align:center;letter-spacing:0px;word-spacing:0px;writing-mode:lr-tb;text-anchor:middle;fill:#ff6600;fill-opacity:1;stroke:none;stroke-width:1.30246913px;stroke-linecap:butt;stroke-linejoin:miter;stroke-opacity:1;"
       x="31.697262"
       y="51.926018"
       id="text1812-0-6-2"
       transform="matrix(0.83647552,-0.39192826,0.36385919,1.025007,0,0)"
       inkscape:transform-center-x="2.7837293"
       inkscape:transform-center-y="0.53915012"
       inkscape:export-xdpi="89"
       inkscape:export-ydpi="89"><tspan
         sodipodi:role="line"
         id="tspan1810-9-7-8"
         x="31.697262"
         y="51.926018"
         style="font-style:italic;font-variant:normal;font-weight:normal;font-stretch:normal;font-size:22.57645226px;font-family:'Century Schoolbook L';-inkscape-font-specification:'Century Schoolbook L, Italic';font-variant-ligatures:normal;font-variant-caps:normal;font-variant-numeric:normal;font-feature-settings:normal;text-align:center;writing-mode:lr-tb;text-anchor:middle;fill:#ff6600;stroke-width:1.30246913px;">T</tspan></text>
    <text
       xml:space="preserve"
       style="font-style:italic;font-variant:normal;font-weight:normal;font-stretch:normal;font-size:22.57645226px;line-height:125%;font-family:'Century Schoolbook L';-inkscape-font-specification:'Century Schoolbook L, Italic';font-variant-ligatures:normal;font-variant-caps:normal;font-variant-numeric:normal;font-feature-settings:normal;text-align:center;letter-spacing:0px;word-spacing:0px;writing-mode:lr-tb;text-anchor:middle;fill:#ff6600;fill-opacity:1;stroke:none;stroke-width:1.30246925px;stroke-linecap:butt;stroke-linejoin:miter;stroke-opacity:1;"
       x="71.605095"
       y="14.374368"
       id="text1812-0-6-2-6"
       transform="matrix(0.86332068,0.35725608,-0.2802635,1.0423406,0,0)"
       inkscape:export-xdpi="89"
       inkscape:export-ydpi="89"><tspan
         sodipodi:role="line"
         id="tspan1810-9-7-8-6"
         x="71.605095"
         y="14.374368"
         style="font-style:italic;font-variant:normal;font-weight:normal;font-stretch:normal;font-size:22.57645226px;font-family:'Century Schoolbook L';-inkscape-font-specification:'Century Schoolbook L, Italic';font-variant-ligatures:normal;font-variant-caps:normal;font-variant-numeric:normal;font-feature-settings:normal;text-align:center;writing-mode:lr-tb;text-anchor:middle;fill:#ff6600;stroke-width:1.30246925px;">A</tspan></text>
    <text
       xml:space="preserve"
       style="font-style:normal;font-variant:normal;font-weight:normal;font-stretch:normal;font-size:24.74625015px;line-height:125%;font-family:'Bola Ocho';-inkscape-font-specification:'Bola Ocho, Normal';font-variant-ligatures:normal;font-variant-caps:normal;font-variant-numeric:normal;font-feature-settings:normal;text-align:center;letter-spacing:0px;word-spacing:0px;writing-mode:lr-tb;text-anchor:middle;fill:#008000;fill-opacity:1;stroke:none;stroke-width:1.42768741px;stroke-linecap:butt;stroke-linejoin:miter;stroke-opacity:1"
       x="46.20047"
       y="-39.000889"
       id="text1812-0-9"
       transform="matrix(-0.97161186,0.00541728,-0.00609439,-1.0291836,0,0)"
       inkscape:export-filename="/var/www/osviralatas/logo.png"
       inkscape:export-xdpi="89"
       inkscape:export-ydpi="89"><tspan
         sodipodi:role="line"
         id="tspan1810-9-1"
         x="46.20047"
         y="-39.000889"
         style="font-style:normal;font-variant:normal;font-weight:normal;font-stretch:normal;font-size:24.74625015px;font-family:'Bola Ocho';-inkscape-font-specification:'Bola Ocho, Normal';font-variant-ligatures:normal;font-variant-caps:normal;font-variant-numeric:normal;font-feature-settings:normal;text-align:center;writing-mode:lr-tb;text-anchor:middle;fill:#008000;stroke-width:1.42768741px">LATA</tspan></text>
    <text
       xml:space="preserve"
       style="font-style:normal;font-variant:normal;font-weight:normal;font-stretch:normal;font-size:19.9891777px;line-height:125%;font-family:'MADE GoodTime Grotesk';-inkscape-font-specification:'MADE GoodTime Grotesk, Normal';font-variant-ligatures:normal;font-variant-caps:normal;font-variant-numeric:normal;font-feature-settings:normal;text-align:center;letter-spacing:0px;word-spacing:0px;writing-mode:lr-tb;text-anchor:middle;fill:#ff6600;fill-opacity:1;stroke:none;stroke-width:1.15322185px;stroke-linecap:butt;stroke-linejoin:miter;stroke-opacity:1;"
       x="7.7553487"
       y="15.159596"
       id="text3183"
       transform="scale(0.94614109,1.0569248)"
       inkscape:export-xdpi="89"
       inkscape:export-ydpi="89"><tspan
         sodipodi:role="line"
         id="tspan3181"
         x="7.7553487"
         y="15.159596"
         style="stroke-width:1.15322185px;fill:#ff6600;">o</tspan></text>
  </g>
  <g
     inkscape:groupmode="layer"
     id="layer3"
     inkscape:label="Camada 3" />
</svg>
